<svg width="29" height="30" viewBox="0 0 29 30" fill="none" xmlns="http://www.w3.org/2000/svg">
<path d="M16.6071 2.25C16.6071 1.00547 15.6176 0 14.3929 0C13.1681 0 12.1786 1.00547 12.1786 2.25V12.375H2.21429C0.98951 12.375 0 13.3805 0 14.625C0 15.8695 0.98951 16.875 2.21429 16.875H12.1786V27C12.1786 28.2445 13.1681 29.25 14.3929 29.25C15.6176 29.25 16.6071 28.2445 16.6071 27V16.875H26.5714C27.7962 16.875 28.7857 15.8695 28.7857 14.625C28.7857 13.3805 27.7962 12.375 26.5714 12.375H16.6071V2.25Z" fill="#B8B8B8"/>
</svg>
