<svg width="114" height="40" viewBox="0 0 114 40" fill="none" xmlns="http://www.w3.org/2000/svg">
<circle cx="14" cy="20" r="14" fill="#3DA9FC"/>
<path d="M46.517 29V11.5455H50.2074V25.9574H57.6903V29H46.517ZM75.4943 20.2727C75.4943 22.1761 75.1335 23.7955 74.4119 25.1307C73.696 26.4659 72.7188 27.4858 71.4801 28.1903C70.2472 28.8892 68.8608 29.2386 67.321 29.2386C65.7699 29.2386 64.3778 28.8864 63.1449 28.1818C61.9119 27.4773 60.9375 26.4574 60.2216 25.1222C59.5057 23.7869 59.1477 22.1705 59.1477 20.2727C59.1477 18.3693 59.5057 16.75 60.2216 15.4148C60.9375 14.0795 61.9119 13.0625 63.1449 12.3636C64.3778 11.6591 65.7699 11.3068 67.321 11.3068C68.8608 11.3068 70.2472 11.6591 71.4801 12.3636C72.7188 13.0625 73.696 14.0795 74.4119 15.4148C75.1335 16.75 75.4943 18.3693 75.4943 20.2727ZM71.7528 20.2727C71.7528 19.0398 71.5682 18 71.1989 17.1534C70.8352 16.3068 70.321 15.6648 69.6562 15.2273C68.9915 14.7898 68.2131 14.571 67.321 14.571C66.429 14.571 65.6506 14.7898 64.9858 15.2273C64.321 15.6648 63.804 16.3068 63.4347 17.1534C63.071 18 62.8892 19.0398 62.8892 20.2727C62.8892 21.5057 63.071 22.5455 63.4347 23.392C63.804 24.2386 64.321 24.8807 64.9858 25.3182C65.6506 25.7557 66.429 25.9744 67.321 25.9744C68.2131 25.9744 68.9915 25.7557 69.6562 25.3182C70.321 24.8807 70.8352 24.2386 71.1989 23.392C71.5682 22.5455 71.7528 21.5057 71.7528 20.2727ZM89.8018 17.1875C89.6825 16.7727 89.5149 16.4062 89.299 16.0881C89.0831 15.7642 88.8189 15.4915 88.5064 15.2699C88.1996 15.0426 87.8473 14.8693 87.4496 14.75C87.0575 14.6307 86.6229 14.571 86.1456 14.571C85.2536 14.571 84.4695 14.7926 83.7933 15.2358C83.1229 15.679 82.6001 16.3239 82.2251 17.1705C81.8501 18.0114 81.6626 19.0398 81.6626 20.2557C81.6626 21.4716 81.8473 22.5057 82.2166 23.358C82.5859 24.2102 83.1087 24.8608 83.7848 25.3097C84.4609 25.7528 85.2592 25.9744 86.1797 25.9744C87.0149 25.9744 87.728 25.8267 88.3189 25.5312C88.9155 25.2301 89.37 24.8068 89.6825 24.2614C90.0007 23.7159 90.1598 23.071 90.1598 22.3267L90.9098 22.4375H86.4098V19.6591H93.7138V21.858C93.7138 23.392 93.3899 24.7102 92.7422 25.8125C92.0945 26.9091 91.2024 27.7557 90.0661 28.3523C88.9297 28.9432 87.6286 29.2386 86.1626 29.2386C84.5263 29.2386 83.0888 28.8778 81.8501 28.1562C80.6115 27.429 79.6456 26.3977 78.9524 25.0625C78.2649 23.7216 77.9212 22.1307 77.9212 20.2898C77.9212 18.875 78.1257 17.6136 78.5348 16.5057C78.9496 15.392 79.5291 14.4489 80.2734 13.6761C81.0178 12.9034 81.8842 12.3153 82.8729 11.9119C83.8615 11.5085 84.9325 11.3068 86.0859 11.3068C87.0746 11.3068 87.995 11.4517 88.8473 11.7415C89.6996 12.0256 90.4553 12.429 91.1143 12.9517C91.7791 13.4744 92.3217 14.0966 92.7422 14.8182C93.1626 15.5341 93.4325 16.3239 93.5518 17.1875H89.8018ZM112.526 20.2727C112.526 22.1761 112.165 23.7955 111.443 25.1307C110.727 26.4659 109.75 27.4858 108.511 28.1903C107.278 28.8892 105.892 29.2386 104.352 29.2386C102.801 29.2386 101.409 28.8864 100.176 28.1818C98.9432 27.4773 97.9688 26.4574 97.2528 25.1222C96.5369 23.7869 96.179 22.1705 96.179 20.2727C96.179 18.3693 96.5369 16.75 97.2528 15.4148C97.9688 14.0795 98.9432 13.0625 100.176 12.3636C101.409 11.6591 102.801 11.3068 104.352 11.3068C105.892 11.3068 107.278 11.6591 108.511 12.3636C109.75 13.0625 110.727 14.0795 111.443 15.4148C112.165 16.75 112.526 18.3693 112.526 20.2727ZM108.784 20.2727C108.784 19.0398 108.599 18 108.23 17.1534C107.866 16.3068 107.352 15.6648 106.688 15.2273C106.023 14.7898 105.244 14.571 104.352 14.571C103.46 14.571 102.682 14.7898 102.017 15.2273C101.352 15.6648 100.835 16.3068 100.466 17.1534C100.102 18 99.9205 19.0398 99.9205 20.2727C99.9205 21.5057 100.102 22.5455 100.466 23.392C100.835 24.2386 101.352 24.8807 102.017 25.3182C102.682 25.7557 103.46 25.9744 104.352 25.9744C105.244 25.9744 106.023 25.7557 106.688 25.3182C107.352 24.8807 107.866 24.2386 108.23 23.392C108.599 22.5455 108.784 21.5057 108.784 20.2727Z" fill="#1E1E1E"/>
</svg>
