<svg width="18" height="18" viewBox="0 0 18 18" fill="none" xmlns="http://www.w3.org/2000/svg">
<path d="M15.524 7.285L14.201 6.844L14.824 5.598C14.8872 5.46758 14.9083 5.32078 14.8845 5.17784C14.8606 5.03491 14.793 4.90289 14.691 4.8L13.2 3.309C13.0966 3.20546 12.9633 3.13695 12.8189 3.11309C12.6745 3.08923 12.5262 3.11124 12.395 3.176L11.149 3.799L10.708 2.476C10.6614 2.3381 10.573 2.21814 10.4551 2.13283C10.3372 2.04751 10.1956 2.00108 10.05 2H7.95C7.80325 1.99962 7.66009 2.04538 7.54076 2.13079C7.42143 2.21621 7.33196 2.33697 7.285 2.476L6.844 3.799L5.598 3.176C5.46758 3.11285 5.32078 3.09172 5.17784 3.11555C5.03491 3.13937 4.90289 3.20696 4.8 3.309L3.309 4.8C3.20546 4.90344 3.13695 5.03672 3.11309 5.18112C3.08923 5.32552 3.11124 5.47376 3.176 5.605L3.799 6.851L2.476 7.292C2.3381 7.33858 2.21814 7.42698 2.13283 7.54492C2.04751 7.66285 2.00108 7.80445 2 7.95V10.05C1.99962 10.1968 2.04538 10.3399 2.13079 10.4592C2.21621 10.5786 2.33697 10.668 2.476 10.715L3.799 11.156L3.176 12.402C3.11285 12.5324 3.09172 12.6792 3.11555 12.8222C3.13937 12.9651 3.20696 13.0971 3.309 13.2L4.8 14.691C4.90344 14.7945 5.03672 14.8631 5.18112 14.8869C5.32552 14.9108 5.47376 14.8888 5.605 14.824L6.851 14.201L7.292 15.524C7.33896 15.663 7.42843 15.7838 7.54776 15.8692C7.66709 15.9546 7.81025 16.0004 7.957 16H10.057C10.2038 16.0004 10.3469 15.9546 10.4662 15.8692C10.5856 15.7838 10.675 15.663 10.722 15.524L11.163 14.201L12.409 14.824C12.5386 14.8856 12.684 14.9058 12.8254 14.882C12.9669 14.8582 13.0977 14.7916 13.2 14.691L14.691 13.2C14.7945 13.0966 14.8631 12.9633 14.8869 12.8189C14.9108 12.6745 14.8888 12.5262 14.824 12.395L14.201 11.149L15.524 10.708C15.6619 10.6614 15.7819 10.573 15.8672 10.4551C15.9525 10.3372 15.9989 10.1956 16 10.05V7.95C16.0004 7.80325 15.9546 7.66009 15.8692 7.54076C15.7838 7.42143 15.663 7.33196 15.524 7.285ZM14.6 9.546L13.76 9.826C13.5668 9.88866 13.3896 9.99258 13.2406 10.1306C13.0917 10.2686 12.9745 10.4373 12.8972 10.6251C12.82 10.8129 12.7845 11.0153 12.7933 11.2181C12.802 11.421 12.8548 11.6196 12.948 11.8L13.347 12.598L12.577 13.368L11.8 12.948C11.6205 12.8586 11.4239 12.8087 11.2234 12.8019C11.023 12.7951 10.8234 12.8314 10.6382 12.9084C10.453 12.9854 10.2866 13.1013 10.15 13.2482C10.0135 13.3951 9.91019 13.5697 9.847 13.76L9.567 14.6H8.454L8.174 13.76C8.11134 13.5668 8.00742 13.3896 7.86943 13.2406C7.73144 13.0917 7.5627 12.9745 7.37489 12.8972C7.18709 12.82 6.98474 12.7845 6.78186 12.7933C6.57898 12.802 6.38044 12.8548 6.2 12.948L5.402 13.347L4.632 12.577L5.052 11.8C5.14517 11.6196 5.19797 11.421 5.20673 11.2181C5.2155 11.0153 5.18003 10.8129 5.10278 10.6251C5.02553 10.4373 4.90835 10.2686 4.75936 10.1306C4.61038 9.99258 4.43316 9.88866 4.24 9.826L3.4 9.546V8.454L4.24 8.174C4.43316 8.11134 4.61038 8.00742 4.75936 7.86943C4.90835 7.73144 5.02553 7.5627 5.10278 7.37489C5.18003 7.18709 5.2155 6.98474 5.20673 6.78186C5.19797 6.57898 5.14517 6.38044 5.052 6.2L4.653 5.423L5.423 4.653L6.2 5.052C6.38044 5.14517 6.57898 5.19797 6.78186 5.20673C6.98474 5.2155 7.18709 5.18003 7.37489 5.10278C7.5627 5.02553 7.73144 4.90835 7.86943 4.75936C8.00742 4.61038 8.11134 4.43316 8.174 4.24L8.454 3.4H9.546L9.826 4.24C9.88866 4.43316 9.99258 4.61038 10.1306 4.75936C10.2686 4.90835 10.4373 5.02553 10.6251 5.10278C10.8129 5.18003 11.0153 5.2155 11.2181 5.20673C11.421 5.19797 11.6196 5.14517 11.8 5.052L12.598 4.653L13.368 5.423L12.948 6.2C12.8586 6.37951 12.8087 6.57614 12.8019 6.77658C12.7951 6.97702 12.8314 7.17659 12.9084 7.36178C12.9854 7.54697 13.1013 7.71345 13.2482 7.84996C13.3951 7.98646 13.5697 8.08981 13.76 8.153L14.6 8.433V9.546ZM9 6.2C8.44621 6.2 7.90486 6.36422 7.4444 6.67189C6.98395 6.97955 6.62506 7.41685 6.41314 7.92849C6.20121 8.44012 6.14576 9.00311 6.2538 9.54625C6.36184 10.0894 6.62851 10.5883 7.0201 10.9799C7.41169 11.3715 7.9106 11.6382 8.45375 11.7462C8.99689 11.8542 9.55988 11.7988 10.0715 11.5869C10.5831 11.3749 11.0204 11.0161 11.3281 10.5556C11.6358 10.0951 11.8 9.55379 11.8 9C11.8 8.25739 11.505 7.5452 10.9799 7.0201C10.4548 6.495 9.74261 6.2 9 6.2ZM9 10.4C8.72311 10.4 8.45243 10.3179 8.2222 10.1641C7.99197 10.0102 7.81253 9.79157 7.70657 9.53576C7.60061 9.27994 7.57288 8.99845 7.6269 8.72687C7.68092 8.4553 7.81426 8.20584 8.01005 8.01005C8.20584 7.81426 8.4553 7.68092 8.72687 7.6269C8.99845 7.57288 9.27994 7.60061 9.53576 7.70657C9.79157 7.81253 10.0102 7.99197 10.1641 8.2222C10.3179 8.45243 10.4 8.72311 10.4 9C10.4 9.3713 10.2525 9.7274 9.98995 9.98995C9.7274 10.2525 9.3713 10.4 9 10.4Z" fill="#3DA9FC"/>
</svg>
