<svg width="18" height="18" viewBox="0 0 18 18" fill="none" xmlns="http://www.w3.org/2000/svg">
<path d="M5 11H7.4C7.61217 11 7.81566 10.9157 7.96569 10.7657C8.11571 10.6157 8.2 10.4122 8.2 10.2C8.2 9.98783 8.11571 9.78434 7.96569 9.63432C7.81566 9.48429 7.61217 9.4 7.4 9.4H5C4.78783 9.4 4.58434 9.48429 4.43431 9.63432C4.28429 9.78434 4.2 9.98783 4.2 10.2C4.2 10.4122 4.28429 10.6157 4.43431 10.7657C4.58434 10.9157 4.78783 11 5 11ZM14.6 3H3.4C2.76348 3 2.15303 3.25286 1.70294 3.70294C1.25286 4.15303 1 4.76348 1 5.4V12.6C1 13.2365 1.25286 13.847 1.70294 14.2971C2.15303 14.7471 2.76348 15 3.4 15H14.6C15.2365 15 15.847 14.7471 16.2971 14.2971C16.7471 13.847 17 13.2365 17 12.6V5.4C17 4.76348 16.7471 4.15303 16.2971 3.70294C15.847 3.25286 15.2365 3 14.6 3ZM15.4 12.6C15.4 12.8122 15.3157 13.0157 15.1657 13.1657C15.0157 13.3157 14.8122 13.4 14.6 13.4H9H3.4C3.18783 13.4 2.98434 13.3157 2.83431 13.1657C2.68429 13.0157 2.6 12.8122 2.6 12.6V7.8H15.4V12.6ZM15.4 6.2H2.6V5.4C2.6 5.18783 2.68429 4.98434 2.83431 4.83431C2.98434 4.68429 3.18783 4.6 3.4 4.6H14.6C14.8122 4.6 15.0157 4.68429 15.1657 4.83431C15.3157 4.98434 15.4 5.18783 15.4 5.4V6.2Z" fill="#39414A"/>
</svg>
