<svg width="18" height="18" viewBox="0 0 18 18" fill="none" xmlns="http://www.w3.org/2000/svg">
<path d="M7.6 9.7H2.7C2.51435 9.7 2.3363 9.77375 2.20503 9.90503C2.07375 10.0363 2 10.2143 2 10.4V15.3C2 15.4857 2.07375 15.6637 2.20503 15.795C2.3363 15.9263 2.51435 16 2.7 16H7.6C7.78565 16 7.9637 15.9263 8.09497 15.795C8.22625 15.6637 8.3 15.4857 8.3 15.3V10.4C8.3 10.2143 8.22625 10.0363 8.09497 9.90503C7.9637 9.77375 7.78565 9.7 7.6 9.7ZM6.9 14.6H3.4V11.1H6.9V14.6ZM15.3 2H10.4C10.2143 2 10.0363 2.07375 9.90503 2.20503C9.77375 2.3363 9.7 2.51435 9.7 2.7V7.6C9.7 7.78565 9.77375 7.9637 9.90503 8.09497C10.0363 8.22625 10.2143 8.3 10.4 8.3H15.3C15.4857 8.3 15.6637 8.22625 15.795 8.09497C15.9263 7.9637 16 7.78565 16 7.6V2.7C16 2.51435 15.9263 2.3363 15.795 2.20503C15.6637 2.07375 15.4857 2 15.3 2ZM14.6 6.9H11.1V3.4H14.6V6.9ZM15.3 9.7H10.4C10.2143 9.7 10.0363 9.77375 9.90503 9.90503C9.77375 10.0363 9.7 10.2143 9.7 10.4V15.3C9.7 15.4857 9.77375 15.6637 9.90503 15.795C10.0363 15.9263 10.2143 16 10.4 16H15.3C15.4857 16 15.6637 15.9263 15.795 15.795C15.9263 15.6637 16 15.4857 16 15.3V10.4C16 10.2143 15.9263 10.0363 15.795 9.90503C15.6637 9.77375 15.4857 9.7 15.3 9.7ZM14.6 14.6H11.1V11.1H14.6V14.6ZM7.6 2H2.7C2.51435 2 2.3363 2.07375 2.20503 2.20503C2.07375 2.3363 2 2.51435 2 2.7V7.6C2 7.78565 2.07375 7.9637 2.20503 8.09497C2.3363 8.22625 2.51435 8.3 2.7 8.3H7.6C7.78565 8.3 7.9637 8.22625 8.09497 8.09497C8.22625 7.9637 8.3 7.78565 8.3 7.6V2.7C8.3 2.51435 8.22625 2.3363 8.09497 2.20503C7.9637 2.07375 7.78565 2 7.6 2ZM6.9 6.9H3.4V3.4H6.9V6.9Z" fill="#3DA9FC"/>
</svg>
