<svg width="18" height="18" viewBox="0 0 18 18" fill="none" xmlns="http://www.w3.org/2000/svg">
<path d="M15.84 2.16003H1.43997C1.24901 2.16003 1.06588 2.23589 0.930854 2.37092C0.795828 2.50594 0.719971 2.68908 0.719971 2.88003V8.64003C0.719971 8.83099 0.795828 9.01412 0.930854 9.14915C1.06588 9.28418 1.24901 9.36003 1.43997 9.36003H3.59997V15.84C3.59997 16.031 3.67583 16.2141 3.81085 16.3492C3.94588 16.4842 4.12901 16.56 4.31997 16.56H12.96C13.1509 16.56 13.3341 16.4842 13.4691 16.3492C13.6041 16.2141 13.68 16.031 13.68 15.84V9.36003H15.84C16.0309 9.36003 16.2141 9.28418 16.3491 9.14915C16.4841 9.01412 16.56 8.83099 16.56 8.64003V2.88003C16.56 2.68908 16.4841 2.50594 16.3491 2.37092C16.2141 2.23589 16.0309 2.16003 15.84 2.16003ZM5.03997 15.12V13.68C5.42188 13.68 5.78815 13.8317 6.0582 14.1018C6.32826 14.3719 6.47997 14.7381 6.47997 15.12H5.03997ZM12.24 15.12H10.8C10.8 14.7381 10.9517 14.3719 11.2217 14.1018C11.4918 13.8317 11.8581 13.68 12.24 13.68V15.12ZM12.24 12.24C11.4761 12.24 10.7436 12.5435 10.2035 13.0836C9.6634 13.6237 9.35997 14.3562 9.35997 15.12H7.91997C7.91997 14.3562 7.61654 13.6237 7.07644 13.0836C6.53633 12.5435 5.80379 12.24 5.03997 12.24V6.48003H12.24V12.24ZM15.12 7.92003H13.68V5.76003C13.68 5.56908 13.6041 5.38594 13.4691 5.25092C13.3341 5.11589 13.1509 5.04003 12.96 5.04003H4.31997C4.12901 5.04003 3.94588 5.11589 3.81085 5.25092C3.67583 5.38594 3.59997 5.56908 3.59997 5.76003V7.92003H2.15997V3.60003H15.12V7.92003ZM8.63997 11.52C9.06718 11.52 9.48479 11.3934 9.84 11.156C10.1952 10.9187 10.4721 10.5813 10.6356 10.1866C10.799 9.79194 10.8418 9.35764 10.7585 8.93864C10.6751 8.51964 10.4694 8.13476 10.1673 7.83268C9.86524 7.5306 9.48037 7.32488 9.06137 7.24154C8.64237 7.15819 8.20806 7.20097 7.81337 7.36445C7.41869 7.52794 7.08134 7.80479 6.844 8.16C6.60665 8.51521 6.47997 8.93283 6.47997 9.36003C6.47997 9.9329 6.70754 10.4823 7.11262 10.8874C7.5177 11.2925 8.0671 11.52 8.63997 11.52ZM8.63997 8.64003C8.78237 8.64003 8.92158 8.68226 9.03998 8.76138C9.15839 8.84049 9.25067 8.95294 9.30516 9.0845C9.35966 9.21606 9.37392 9.36083 9.34614 9.5005C9.31836 9.64017 9.24978 9.76846 9.14909 9.86915C9.04839 9.96984 8.9201 10.0384 8.78044 10.0662C8.64077 10.094 8.496 10.0797 8.36444 10.0252C8.23288 9.97073 8.12043 9.87845 8.04131 9.76004C7.9622 9.64164 7.91997 9.50244 7.91997 9.36003C7.91997 9.16908 7.99583 8.98594 8.13085 8.85092C8.26588 8.71589 8.44902 8.64003 8.63997 8.64003Z" fill="#3DA9FC"/>
</svg>
