<svg width="18" height="18" viewBox="0 0 18 18" fill="none" xmlns="http://www.w3.org/2000/svg">
<path d="M15.84 2.16003H1.44C1.24905 2.16003 1.06591 2.23589 0.930884 2.37092C0.795858 2.50594 0.720001 2.68908 0.720001 2.88003V8.64003C0.720001 8.83099 0.795858 9.01412 0.930884 9.14915C1.06591 9.28418 1.24905 9.36003 1.44 9.36003H3.6V15.84C3.6 16.031 3.67586 16.2141 3.81088 16.3492C3.94591 16.4842 4.12905 16.56 4.32 16.56H12.96C13.151 16.56 13.3341 16.4842 13.4691 16.3492C13.6041 16.2141 13.68 16.031 13.68 15.84V9.36003H15.84C16.031 9.36003 16.2141 9.28418 16.3491 9.14915C16.4841 9.01412 16.56 8.83099 16.56 8.64003V2.88003C16.56 2.68908 16.4841 2.50594 16.3491 2.37092C16.2141 2.23589 16.031 2.16003 15.84 2.16003ZM5.04 15.12V13.68C5.42191 13.68 5.78818 13.8317 6.05823 14.1018C6.32829 14.3719 6.48 14.7381 6.48 15.12H5.04ZM12.24 15.12H10.8C10.8 14.7381 10.9517 14.3719 11.2218 14.1018C11.4918 13.8317 11.8581 13.68 12.24 13.68V15.12ZM12.24 12.24C11.4762 12.24 10.7436 12.5435 10.2035 13.0836C9.66343 13.6237 9.36 14.3562 9.36 15.12H7.92C7.92 14.3562 7.61657 13.6237 7.07647 13.0836C6.53636 12.5435 5.80382 12.24 5.04 12.24V6.48003H12.24V12.24ZM15.12 7.92003H13.68V5.76003C13.68 5.56908 13.6041 5.38594 13.4691 5.25092C13.3341 5.11589 13.151 5.04003 12.96 5.04003H4.32C4.12905 5.04003 3.94591 5.11589 3.81088 5.25092C3.67586 5.38594 3.6 5.56908 3.6 5.76003V7.92003H2.16V3.60003H15.12V7.92003ZM8.64 11.52C9.06721 11.52 9.48482 11.3934 9.84003 11.156C10.1952 10.9187 10.4721 10.5813 10.6356 10.1866C10.7991 9.79194 10.8418 9.35764 10.7585 8.93864C10.6752 8.51964 10.4694 8.13476 10.1674 7.83268C9.86527 7.5306 9.4804 7.32488 9.0614 7.24154C8.6424 7.15819 8.20809 7.20097 7.81341 7.36445C7.41872 7.52794 7.08137 7.80479 6.84403 8.16C6.60668 8.51521 6.48 8.93283 6.48 9.36003C6.48 9.9329 6.70757 10.4823 7.11265 10.8874C7.51773 11.2925 8.06713 11.52 8.64 11.52ZM8.64 8.64003C8.7824 8.64003 8.92161 8.68226 9.04001 8.76138C9.15842 8.84049 9.2507 8.95294 9.30519 9.0845C9.35969 9.21606 9.37395 9.36083 9.34617 9.5005C9.31839 9.64017 9.24981 9.76846 9.14912 9.86915C9.04842 9.96984 8.92013 10.0384 8.78047 10.0662C8.6408 10.094 8.49603 10.0797 8.36447 10.0252C8.23291 9.97073 8.12046 9.87845 8.04134 9.76004C7.96223 9.64164 7.92 9.50244 7.92 9.36003C7.92 9.16908 7.99586 8.98594 8.13088 8.85092C8.26591 8.71589 8.44905 8.64003 8.64 8.64003Z" fill="#39414A"/>
</svg>
