<svg width="18" height="18" viewBox="0 0 18 18" fill="none" xmlns="http://www.w3.org/2000/svg">
<path d="M8.36364 7.09091H10.9091C11.0779 7.09091 11.2397 7.02386 11.3591 6.90452C11.4784 6.78518 11.5455 6.62332 11.5455 6.45454C11.5455 6.28577 11.4784 6.12391 11.3591 6.00457C11.2397 5.88523 11.0779 5.81818 10.9091 5.81818H9.63636V5.18182C9.63636 5.01304 9.56932 4.85118 9.44998 4.73184C9.33064 4.6125 9.16878 4.54545 9 4.54545C8.83123 4.54545 8.66937 4.6125 8.55002 4.73184C8.43068 4.85118 8.36364 5.01304 8.36364 5.18182V5.81818C7.85732 5.81818 7.37173 6.01932 7.01371 6.37734C6.65568 6.73536 6.45455 7.22095 6.45455 7.72727C6.45455 8.23359 6.65568 8.71918 7.01371 9.0772C7.37173 9.43523 7.85732 9.63636 8.36364 9.63636H9.63636C9.80514 9.63636 9.967 9.70341 10.0863 9.82275C10.2057 9.94209 10.2727 10.104 10.2727 10.2727C10.2727 10.4415 10.2057 10.6034 10.0863 10.7227C9.967 10.842 9.80514 10.9091 9.63636 10.9091H7.09091C6.92214 10.9091 6.76028 10.9761 6.64093 11.0955C6.52159 11.2148 6.45455 11.3767 6.45455 11.5455C6.45455 11.7142 6.52159 11.8761 6.64093 11.9954C6.76028 12.1148 6.92214 12.1818 7.09091 12.1818H8.36364V12.8182C8.36364 12.987 8.43068 13.1488 8.55002 13.2682C8.66937 13.3875 8.83123 13.4545 9 13.4545C9.16878 13.4545 9.33064 13.3875 9.44998 13.2682C9.56932 13.1488 9.63636 12.987 9.63636 12.8182V12.1818C10.1427 12.1818 10.6283 11.9807 10.9863 11.6227C11.3443 11.2646 11.5455 10.779 11.5455 10.2727C11.5455 9.7664 11.3443 9.28082 10.9863 8.92279C10.6283 8.56477 10.1427 8.36364 9.63636 8.36364H8.36364C8.19486 8.36364 8.033 8.29659 7.91366 8.17725C7.79432 8.05791 7.72727 7.89605 7.72727 7.72727C7.72727 7.5585 7.79432 7.39664 7.91366 7.27729C8.033 7.15795 8.19486 7.09091 8.36364 7.09091V7.09091ZM9 2C7.61553 2 6.26215 2.41054 5.11101 3.17971C3.95987 3.94888 3.06266 5.04213 2.53285 6.32121C2.00303 7.6003 1.86441 9.00776 2.13451 10.3656C2.4046 11.7235 3.07129 12.9708 4.05026 13.9497C5.02922 14.9287 6.2765 15.5954 7.63437 15.8655C8.99224 16.1356 10.3997 15.997 11.6788 15.4672C12.9579 14.9373 14.0511 14.0401 14.8203 12.889C15.5895 11.7378 16 10.3845 16 9C16 7.14348 15.2625 5.36301 13.9497 4.05025C12.637 2.7375 10.8565 2 9 2V2ZM9 14.7273C7.86725 14.7273 6.75994 14.3914 5.8181 13.7621C4.87625 13.1327 4.14218 12.2383 3.70869 11.1917C3.27521 10.1452 3.16179 8.99365 3.38278 7.88266C3.60377 6.77168 4.14924 5.75118 4.95021 4.95021C5.75118 4.14923 6.77168 3.60376 7.88267 3.38277C8.99365 3.16179 10.1452 3.27521 11.1917 3.70869C12.2383 4.14217 13.1327 4.87625 13.7621 5.8181C14.3914 6.75994 14.7273 7.86725 14.7273 9C14.7273 10.519 14.1239 11.9757 13.0498 13.0498C11.9757 14.1239 10.519 14.7273 9 14.7273V14.7273Z" fill="#3DA9FC"/>
</svg>
