<svg width="18" height="18" viewBox="0 0 18 18" fill="none" xmlns="http://www.w3.org/2000/svg">
<path d="M15.725 9.70346C15.6241 9.61758 15.5017 9.5626 15.3718 9.54479C15.242 9.52697 15.1099 9.54704 14.9906 9.60269C14.2509 9.95098 13.4467 10.1302 12.6333 10.1281C11.1286 10.1262 9.68564 9.51232 8.61904 8.4202C7.55244 7.32807 6.94871 5.84633 6.93948 4.29805C6.94267 3.81281 7.00136 3.32964 7.11435 2.85852C7.13833 2.73295 7.12933 2.60308 7.0883 2.48227C7.04726 2.36147 6.97567 2.2541 6.88089 2.17125C6.78611 2.08839 6.67158 2.03303 6.54909 2.01087C6.4266 1.98871 6.30059 2.00056 6.18403 2.04519C5.08747 2.55256 4.13424 3.33843 3.4139 4.32898C2.69356 5.31954 2.22975 6.48226 2.06605 7.70791C1.90235 8.93356 2.04413 10.1819 2.47806 11.3357C2.912 12.4895 3.62385 13.5108 4.54675 14.3038C5.46964 15.0967 6.57328 15.6353 7.75399 15.8688C8.9347 16.1023 10.1537 16.0232 11.2965 15.6388C12.4394 15.2544 13.4685 14.5774 14.2872 13.6713C15.1059 12.7653 15.6873 11.66 15.9768 10.4592C16.0121 10.3217 16.007 10.1766 15.9622 10.0421C15.9174 9.90758 15.8348 9.78975 15.725 9.70346V9.70346ZM9.0799 14.5187C7.906 14.5101 6.76335 14.1285 5.8084 13.4259C4.85346 12.7233 4.13291 11.7342 3.7454 10.5939C3.3579 9.45364 3.32239 8.218 3.64374 7.05618C3.96508 5.89435 4.62758 4.86313 5.54051 4.10371V4.29805C5.54236 6.23311 6.29023 8.08838 7.61998 9.45668C8.94973 10.825 10.7527 11.5945 12.6333 11.5964C13.127 11.5983 13.6196 11.5452 14.1022 11.4381C13.6195 12.3777 12.8966 13.164 12.0116 13.7119C11.1265 14.2599 10.1128 14.5488 9.0799 14.5475V14.5187Z" fill="#39414A"/>
</svg>
