<svg width="18" height="18" viewBox="0 0 18 18" fill="none" xmlns="http://www.w3.org/2000/svg">
<path d="M15.3 6.71407C15.3919 6.71409 15.483 6.69563 15.5679 6.65975C15.6528 6.62386 15.73 6.57124 15.795 6.50491C15.86 6.43857 15.9116 6.35982 15.9468 6.27315C15.9819 6.18647 16 6.09358 16 5.99977V3.85686C16.0001 3.70698 15.9539 3.56089 15.868 3.43931C15.7821 3.31773 15.6609 3.22684 15.5215 3.17953L9.22149 1.03662C9.07771 0.987793 8.92229 0.987793 8.77851 1.03662L2.47851 3.17953C2.33915 3.22684 2.21792 3.31773 2.13202 3.43931C2.04613 3.56089 1.99994 3.70698 2 3.85686V5.99977C1.99998 6.09358 2.01807 6.18647 2.05324 6.27315C2.08841 6.35982 2.13997 6.43857 2.20497 6.50491C2.26998 6.57124 2.34715 6.62386 2.43209 6.65975C2.51703 6.69563 2.60807 6.71409 2.7 6.71407H3.4V11.8458C2.99172 11.9926 2.63796 12.2647 2.38729 12.6248C2.13662 12.9849 2.00133 13.4154 2 13.8571V15.2857C1.99998 15.3795 2.01807 15.4724 2.05324 15.5591C2.08841 15.6458 2.13997 15.7245 2.20497 15.7908C2.26998 15.8572 2.34715 15.9098 2.43209 15.9457C2.51703 15.9816 2.60807 16 2.7 16H15.3C15.3919 16 15.483 15.9816 15.5679 15.9457C15.6528 15.9098 15.73 15.8572 15.795 15.7908C15.86 15.7245 15.9116 15.6458 15.9468 15.5591C15.9819 15.4724 16 15.3795 16 15.2857V13.8571C15.9987 13.4154 15.8634 12.9849 15.6127 12.6248C15.362 12.2647 15.0083 11.9926 14.6 11.8458V6.71407H15.3ZM14.6 14.5714H3.4V13.8571C3.40019 13.6677 3.47399 13.4861 3.60523 13.3522C3.73647 13.2183 3.91441 13.143 4.1 13.1428H13.9C14.0856 13.143 14.2635 13.2183 14.3948 13.3522C14.526 13.4861 14.5998 13.6677 14.6 13.8571V14.5714ZM4.8 11.7142V6.71407H6.2V11.7142H4.8ZM7.6 11.7142V6.71407H10.4V11.7142H7.6ZM11.8 11.7142V6.71407H13.2V11.7142H11.8ZM3.4 5.28546V4.37166L9 2.46661L14.6 4.37166V5.28546H3.4Z" fill="#39414A"/>
</svg>
