<svg width="12" height="7" viewBox="0 0 12 7" fill="none" xmlns="http://www.w3.org/2000/svg">
<path d="M6.80922 6.66853L11.6615 1.91713C11.7688 1.81296 11.8539 1.68902 11.912 1.55246C11.9701 1.4159 12 1.26943 12 1.1215C12 0.973565 11.9701 0.827095 11.912 0.690538C11.8539 0.553981 11.7688 0.430041 11.6615 0.325865C11.4471 0.11715 11.157 0 10.8547 0C10.5523 0 10.2623 0.11715 10.0479 0.325865L5.99669 4.29283L1.9455 0.325865C1.73109 0.11715 1.44103 0 1.1387 0C0.836365 0 0.546313 0.11715 0.331895 0.325865C0.22583 0.430575 0.141917 0.554757 0.0849667 0.69129C0.0280161 0.827822 -0.000851631 0.97402 1.90735e-05 1.1215C-0.000851631 1.26898 0.0280161 1.41518 0.0849667 1.55171C0.141917 1.68824 0.22583 1.81242 0.331895 1.91713L5.18417 6.66853C5.29055 6.77356 5.41712 6.85693 5.55658 6.91382C5.69604 6.97071 5.84562 7 5.99669 7C6.14777 7 6.29735 6.97071 6.4368 6.91382C6.57626 6.85693 6.70283 6.77356 6.80922 6.66853Z" fill="#BFCAD1"/>
</svg>
