<svg width="20" height="25" viewBox="0 0 20 25" fill="none" xmlns="http://www.w3.org/2000/svg">
<path d="M16.8 14.0161V10.2001C16.7983 8.49985 16.1949 6.85506 15.0967 5.55703C13.9986 4.25899 12.4765 3.39147 10.8 3.1081V1.8001C10.8 1.48184 10.6736 1.17661 10.4485 0.951569C10.2235 0.726526 9.91826 0.600098 9.6 0.600098C9.28174 0.600098 8.97652 0.726526 8.75147 0.951569C8.52643 1.17661 8.4 1.48184 8.4 1.8001V3.1081C6.72353 3.39147 5.20143 4.25899 4.10326 5.55703C3.0051 6.85506 2.40172 8.49985 2.4 10.2001V14.0161C1.69974 14.2637 1.0932 14.7218 0.663526 15.3276C0.233854 15.9335 0.00208741 16.6574 0 17.4001V19.8001C0 20.1184 0.126428 20.4236 0.351472 20.6486C0.576516 20.8737 0.88174 21.0001 1.2 21.0001H4.968C5.24434 22.0169 5.8476 22.9146 6.68472 23.5546C7.52183 24.1946 8.54628 24.5413 9.6 24.5413C10.6537 24.5413 11.6782 24.1946 12.5153 23.5546C13.3524 22.9146 13.9557 22.0169 14.232 21.0001H18C18.3183 21.0001 18.6235 20.8737 18.8485 20.6486C19.0736 20.4236 19.2 20.1184 19.2 19.8001V17.4001C19.1979 16.6574 18.9661 15.9335 18.5365 15.3276C18.1068 14.7218 17.5003 14.2637 16.8 14.0161ZM4.8 10.2001C4.8 8.92706 5.30571 7.70616 6.20589 6.80598C7.10606 5.90581 8.32696 5.4001 9.6 5.4001C10.873 5.4001 12.0939 5.90581 12.9941 6.80598C13.8943 7.70616 14.4 8.92706 14.4 10.2001V13.8001H4.8V10.2001ZM9.6 22.2001C9.18117 22.1976 8.77029 22.0855 8.4082 21.875C8.04611 21.6644 7.74541 21.3628 7.536 21.0001H11.664C11.4546 21.3628 11.1539 21.6644 10.7918 21.875C10.4297 22.0855 10.0188 22.1976 9.6 22.2001ZM16.8 18.6001H2.4V17.4001C2.4 17.0818 2.52643 16.7766 2.75147 16.5516C2.97652 16.3265 3.28174 16.2001 3.6 16.2001H15.6C15.9183 16.2001 16.2235 16.3265 16.4485 16.5516C16.6736 16.7766 16.8 17.0818 16.8 17.4001V18.6001Z" fill="#041D2E"/>
</svg>
